<?xml version="1.0" encoding="utf-8"?>
<!-- Generator: Adobe Illustrator 25.1.0, SVG Export Plug-In . SVG Version: 6.00 Build 0)  -->
<svg version="1.1" id="Camada_1" xmlns="http://www.w3.org/2000/svg" xmlns:xlink="http://www.w3.org/1999/xlink" x="0px" y="0px"
	 viewBox="0 0 547.2 162.2" style="enable-background:new 0 0 547.2 162.2;" xml:space="preserve">
<style type="text/css">
	.st0{fill:#FFFFFF;}
</style>
<g id="Camada_2_1_">
	<g id="Camada_1-2">
		<polygon class="st0" points="148.1,0 50.9,0 50.9,0.3 50.9,5.7 50.9,123.2 46,123.2 46,0.3 40.9,0.3 40.9,123.2 35.7,123.2 
			35.7,0.3 30.6,0.3 30.6,123.2 25.4,123.2 25.4,0.3 20.3,0.3 20.3,123.2 15.2,123.2 15.2,0.3 10.1,0.3 10.1,123.2 5.1,123.2 
			5.1,0.3 0,0.3 0,123.2 0,128.9 5.1,128.9 10.1,128.9 15.2,128.9 20.3,128.9 25.4,128.9 30.6,128.9 35.7,128.9 40.9,128.9 
			46,128.9 50.9,128.9 55.7,128.9 56,128.9 56,5.7 148.1,5.7 		"/>
		<polygon class="st0" points="92.8,33.3 92.8,33.5 92.4,33.5 92.4,156.5 0.1,156.5 0.1,162.2 92.4,162.2 97.5,162.2 97.5,156.5 
			97.5,39 102.1,39 102.1,162.2 107.2,162.2 107.2,39 112.2,39 112.2,162.2 117.3,162.2 117.3,39 122.4,39 122.4,162.2 127.5,162.2 
			127.5,39 132.7,39 132.7,162.2 137.8,162.2 137.8,39 143,39 143,162.2 148.1,162.2 148.1,39 148.1,33.3 148.1,33.3 		"/>
		<path class="st0" d="M209.7,35.4c3.5,0,6.9,1.5,9.1,4.2l5.4-5c-3.4-4.1-8.6-6.4-14.9-6.4c-11.3,0-19.6,7.8-19.6,18.7
			s8.4,18.8,19.6,18.8c6.3,0,11.5-2.3,14.9-6.5l-5.4-5c-2.2,2.7-5.6,4.3-9.1,4.3c-6.8,0-11.6-4.8-11.6-11.6S202.9,35.3,209.7,35.4"
			/>
		<polygon class="st0" points="283.7,50 300.5,50 300.5,43.4 283.7,43.4 283.7,35.6 302.7,35.6 302.7,28.9 275.4,28.9 275.4,65 
			303.4,65 303.4,58.3 283.7,58.3 		"/>
		<path class="st0" d="M387.9,42c0-8.1-6-13.1-15.7-13.1h-15.6V65h8.4V55h7.7l7,10.1h9l-8.1-11.6C385.1,51.6,388.1,47,387.9,42
			 M371.7,48.3h-6.8V35.7h6.8c5.1,0,7.7,2.3,7.7,6.3S376.8,48.3,371.7,48.3"/>
		<polygon class="st0" points="448.2,50 465,50 465,43.4 448.2,43.4 448.2,35.6 467.2,35.6 467.2,28.9 439.9,28.9 439.9,65 
			467.9,65 467.9,58.3 448.2,58.3 		"/>
		<path class="st0" d="M526.2,39.1c0-2.3,1.9-4.1,6.9-4.1c3.5,0.1,7,1,10,2.8l2.6-6.4c-3.8-2.2-8.2-3.3-12.5-3.2
			c-10.3,0-15.2,5.1-15.2,11.3c0,13.4,21,8.8,21,15.5c0,2.2-2,3.9-7,3.9c-4.2-0.1-8.4-1.4-11.9-3.8l-2.8,6.3c3.2,2.5,9,4.2,14.7,4.2
			c10.3,0,15.3-5.2,15.3-11.2C547.2,41.2,526.2,45.8,526.2,39.1"/>
		<rect x="189.6" y="113.2" class="st0" width="4.7" height="20.5"/>
		<polygon class="st0" points="222.2,125.5 212,113.1 208.1,113.1 208.1,133.6 212.8,133.6 212.8,121.1 222.9,133.6 226.8,133.6 
			226.8,113.1 222.2,113.1 		"/>
		<polygon class="st0" points="249.3,127.7 243.1,113.1 238,113.1 246.8,133.6 251.4,133.6 260.2,113.1 255.6,113.1 		"/>
		<polygon class="st0" points="275.8,125 285.2,125 285.2,121.3 275.8,121.3 275.8,116.9 286.5,116.9 286.5,113.1 271.1,113.1 
			271.1,133.6 286.9,133.6 286.9,129.8 275.8,129.8 		"/>
		<path class="st0" d="M303.3,118.9c0-1.3,1.1-2.3,3.9-2.3c2,0,3.9,0.6,5.6,1.6l1.5-3.6c-2.1-1.2-4.6-1.9-7.1-1.8
			c-5.8,0-8.6,2.9-8.6,6.4c0,7.6,11.8,5,11.8,8.8c0,1.3-1.1,2.2-3.9,2.2c-2.4,0-4.7-0.8-6.7-2.1l-1.6,3.6c2.5,1.6,5.4,2.4,8.3,2.4
			c5.8,0,8.6-2.9,8.6-6.3C315.1,120.1,303.3,122.7,303.3,118.9"/>
		<polygon class="st0" points="324.9,117 331.4,117 331.4,133.6 336.1,133.6 336.1,117 342.6,117 342.6,113.1 324.9,113.1 		"/>
		<rect x="354.4" y="113.1" class="st0" width="4.7" height="20.5"/>
		<polygon class="st0" points="392.1,113.1 384.6,125.8 377,113.1 373.1,113.1 373.1,133.6 377.5,133.6 377.5,121.6 383.5,131.4 
			385.6,131.4 391.5,121.3 391.6,133.6 396,133.6 395.9,113.1 		"/>
		<polygon class="st0" points="414.7,125 424.1,125 424.1,121.3 414.7,121.3 414.7,116.9 425.4,116.9 425.4,113.1 410,113.1 
			410,133.6 425.8,133.6 425.8,129.8 414.7,129.8 		"/>
		<polygon class="st0" points="452.7,125.5 442.6,113.1 438.7,113.1 438.7,133.6 443.3,133.6 443.3,121.1 453.5,133.6 457.3,133.6 
			457.3,113.1 452.7,113.1 		"/>
		<polygon class="st0" points="469,117 475.5,117 475.5,133.6 480.3,133.6 480.3,117 486.8,117 486.8,113.1 469,113.1 		"/>
		<path class="st0" d="M508,112.7c-6.4,0-11.1,4.5-11.1,10.6s4.7,10.6,11.1,10.6c6.4,0,11.1-4.5,11.1-10.6S514.4,112.7,508,112.7
			 M508,129.9c-3.6,0.1-6.6-2.7-6.8-6.4c-0.1-3.6,2.7-6.6,6.4-6.8s6.6,2.7,6.8,6.4c0,0.1,0,0.1,0,0.2c0.2,3.4-2.5,6.4-5.9,6.6
			C508.3,129.9,508.2,129.9,508,129.9"/>
		<path class="st0" d="M535.4,118.9c0-1.3,1.1-2.3,3.9-2.3c2,0,3.9,0.6,5.6,1.6l1.5-3.6c-2.1-1.2-4.6-1.9-7.1-1.8
			c-5.8,0-8.6,2.9-8.6,6.4c0,7.6,11.8,5,11.8,8.8c0,1.3-1.1,2.2-3.9,2.2c-2.4,0-4.7-0.8-6.7-2.1l-1.6,3.6c2.5,1.6,5.3,2.4,8.3,2.4
			c5.8,0,8.6-2.9,8.6-6.3C547.2,120.1,535.4,122.7,535.4,118.9"/>
		<rect x="189.6" y="86.3" class="st0" width="357.6" height="5.9"/>
	</g>
</g>
</svg>
